<svg id="Calque_1" data-name="Calque 1" xmlns="http://www.w3.org/2000/svg" viewBox="0 0 799.43 54.41"><title>bandeau-livre-artiste</title><path d="M437,5.37Q434.1,3,428.8,3H426v21.4h2.74q5.3,0,8.22-2.77t2.91-8.79Q439.82,7.74,437,5.37Z" transform="translate(-0.57 3.26)"/><path d="M306.2,9.21A14.45,14.45,0,0,0,301,4.64,15,15,0,0,0,293.92,3c-.85,0-1.8,0-2.87.06s-1.87.06-2.39.09V42a7,7,0,0,0,.34,2.29A4.2,4.2,0,0,0,290.17,46a5.56,5.56,0,0,0,2,1.17,9.86,9.86,0,0,0,3.16.42,15.15,15.15,0,0,0,7-1.51,12,12,0,0,0,4.72-4.44,21.17,21.17,0,0,0,2.57-6.86,46.31,46.31,0,0,0,.81-9.17,37.06,37.06,0,0,0-1.08-9.26A21.69,21.69,0,0,0,306.2,9.21Z" transform="translate(-0.57 3.26)"/><polygon points="363.08 33.44 377.77 33.44 370.37 14.96 363.08 33.44"/><path d="M170.43,5.37Q167.57,3,162.27,3h-2.84v21.4h2.73q5.29,0,8.22-2.77c1.94-1.85,2.92-4.78,2.92-8.79Q173.3,7.74,170.43,5.37Z" transform="translate(-0.57 3.26)"/><path d="M341-3.26a6.62,6.62,0,0,1,1.92,1.63A11.24,11.24,0,0,1,345,5.64q0,4.33-3.67,8.72A24,24,0,0,1,332.54,21L331,18.47a20,20,0,0,0,6.4-4.61A10.93,10.93,0,0,0,340,7.48h-2a11.23,11.23,0,0,1-3.65-.5,5.9,5.9,0,0,1-2.28-1.41,4.69,4.69,0,0,1-1.17-1.89,7,7,0,0,1-.35-2.18,5.33,5.33,0,0,1,1.86-4,7,7,0,0,1,.94-.73H.57v3H27.5V2.55c-.77.07-1.68.17-2.72.3a15.42,15.42,0,0,0-2.72.56,3,3,0,0,0-1.88,1.46,5.23,5.23,0,0,0-.47,2.25V40.73A16.71,16.71,0,0,0,20,44.48a3.28,3.28,0,0,0,1.26,2,5.53,5.53,0,0,0,2.61.88,42.21,42.21,0,0,0,4.63.2,44.45,44.45,0,0,0,5.6-.34,6.74,6.74,0,0,0,3.91-1.5,25.1,25.1,0,0,0,3.77-5.17,53.81,53.81,0,0,0,3.08-6.1h2.63l-1,16.39H.57v.29H104.33q-5-12.23-10.15-24.83T86.83,8.6a12,12,0,0,0-1.6-2.72A9.44,9.44,0,0,0,82.76,4,10.6,10.6,0,0,0,80.6,3a17.74,17.74,0,0,0-2.47-.48c-.72.07-1.61.17-2.68.3a14.76,14.76,0,0,0-2.74.56,2.93,2.93,0,0,0-1.87,1.46,5.09,5.09,0,0,0-.47,2.25V43.33a4.71,4.71,0,0,0,.48,2.21A3.58,3.58,0,0,0,72.71,47a12.55,12.55,0,0,0,2.5.63,29,29,0,0,0,2.94.38v2.81H49.8V48.05l2.86-.22a9.92,9.92,0,0,0,2.61-.43A3.45,3.45,0,0,0,57.09,46a4.59,4.59,0,0,0,.49-2.26V7.48a4.8,4.8,0,0,0-.47-2.16,3.37,3.37,0,0,0-1.84-1.51,16,16,0,0,0-2.55-.74,28.71,28.71,0,0,0-2.92-.52V-.26h56V2.47a28.09,28.09,0,0,0-5.28,1Q99.16,4,99.16,4.78a3.34,3.34,0,0,0,.12.85c.09.3.21.7.38,1.2q1.16,3.16,4.18,10.35t9,21.9q3.63-9,6-15.15T123.11,13c.6-1.53,1.1-3,1.49-4.3a11.61,11.61,0,0,0,.6-3c0-.77-.55-1.41-1.66-1.93a20.4,20.4,0,0,0-6.12-1.13V-.26h20.71V2.62a11.25,11.25,0,0,0-2.27.43,10.11,10.11,0,0,0-2.23,1A8.63,8.63,0,0,0,131.24,6a12.6,12.6,0,0,0-1.68,2.82c-.74,1.66-1.79,4.08-3.13,7.26s-2.89,6.81-4.62,10.87q-2.3,5.47-5,12l-5,12.22h449l-.23-.06a32.6,32.6,0,0,1-6.87-2.75l-2.48,2.52h-3.06l-.47-18.48h3.1a47.66,47.66,0,0,0,2.66,5.56,26.88,26.88,0,0,0,3.75,5.23,19.23,19.23,0,0,0,4.92,3.94,12.83,12.83,0,0,0,6.35,1.51c3.27,0,5.77-.79,7.52-2.39a7.87,7.87,0,0,0,2.61-6,6.55,6.55,0,0,0-2.22-5,18.38,18.38,0,0,0-6.86-3.52L564,29.83c-1.69-.56-3.28-1.12-4.77-1.7a15.77,15.77,0,0,1-7.66-5.88A15.26,15.26,0,0,1,549,13.7a13.31,13.31,0,0,1,1.3-5.76,15.22,15.22,0,0,1,3.78-5,18.67,18.67,0,0,1,6.09-3.35,24.13,24.13,0,0,1,8.07-1.3,26,26,0,0,1,8,1.19,32.33,32.33,0,0,1,5.84,2.38l2.19-2.16h3.14l.29,17.43h-3.1c-.72-1.88-1.57-3.79-2.54-5.76A25,25,0,0,0,579,6.52a14.07,14.07,0,0,0-4.07-3.34,11.23,11.23,0,0,0-5.41-1.25,9.25,9.25,0,0,0-6.36,2.2,7,7,0,0,0-2.46,5.45,6.47,6.47,0,0,0,2.14,5A18.65,18.65,0,0,0,569.48,18q2.67.9,5.44,1.8t4.94,1.73a17.77,17.77,0,0,1,7.94,5.58A14,14,0,0,1,590.52,36,14.12,14.12,0,0,1,589,42.38a14.77,14.77,0,0,1-4.18,5.16,21.36,21.36,0,0,1-6.66,3.5l-.41.11H800V-3.26ZM197.83,50.86H178.21q-5.07-7.78-8.44-12.4T161.4,27.8h-2V43.33a4.64,4.64,0,0,0,.48,2.2A3.79,3.79,0,0,0,161.77,47a12.43,12.43,0,0,0,2.14.59,22.93,22.93,0,0,0,2.51.42v2.81H139.14V48.05l2.76-.31a10,10,0,0,0,2.43-.49,3.52,3.52,0,0,0,1.84-1.45,4.83,4.83,0,0,0,.47-2.26V7.48a5.27,5.27,0,0,0-.4-2.16,3.43,3.43,0,0,0-1.91-1.51,15.29,15.29,0,0,0-2.72-.8c-1-.21-1.87-.37-2.47-.46V-.26h28.68q9.62,0,14.61,3a9.92,9.92,0,0,1,5,9.1,12.06,12.06,0,0,1-3.08,8.63q-3.08,3.26-9.39,5.1l5.71,7.35q3.27,4.17,6.8,8.53,1.11,1.41,3,3.45a8.91,8.91,0,0,0,3.4,2.5,14.35,14.35,0,0,0,2.11.43c.85.12,1.46.19,1.82.22Zm48.1,0H198V48.05c.68,0,1.59-.15,2.74-.29a10.21,10.21,0,0,0,2.45-.51A3.48,3.48,0,0,0,205,45.8a4.83,4.83,0,0,0,.47-2.26V7.48a5,5,0,0,0-.4-2.14,3.57,3.57,0,0,0-1.91-1.53,12.66,12.66,0,0,0-2.63-.8c-1.13-.24-2-.39-2.56-.46V-.26H243.3v13h-2.74A19.29,19.29,0,0,0,237,6.89a9.81,9.81,0,0,0-5.08-3.52,16.23,16.23,0,0,0-3-.3c-1.29,0-2.35-.06-3.19-.06h-7.42V22.72h5.26a13,13,0,0,0,3.6-.47,6.75,6.75,0,0,0,2.95-1.8,8.77,8.77,0,0,0,1.68-2.92,17.63,17.63,0,0,0,1.1-3.64h2.74V35.22h-2.74a18.55,18.55,0,0,0-1.1-3.8,10.63,10.63,0,0,0-1.68-3.15,6,6,0,0,0-2.81-1.78,12.84,12.84,0,0,0-3.74-.49h-5.26V40.73a15.44,15.44,0,0,0,.34,3.66,3.62,3.62,0,0,0,1.28,2.07,5.11,5.11,0,0,0,2.47.9,31.63,31.63,0,0,0,4.27.22c.84,0,1.85,0,3,0a26.86,26.86,0,0,0,3.1-.21,19.46,19.46,0,0,0,2.83-.54,4.09,4.09,0,0,0,2-1,29,29,0,0,0,3.89-5.38,39.68,39.68,0,0,0,2.85-5.43h2.63Zm76.36-13.93a23,23,0,0,1-6.83,7.88,30.72,30.72,0,0,1-9.82,4.55,43.5,43.5,0,0,1-11.51,1.5H268.37V48.05c.77,0,1.73-.1,2.88-.22a9.07,9.07,0,0,0,2.31-.43,3.43,3.43,0,0,0,1.8-1.46,4.5,4.5,0,0,0,.51-2.22V7.48a5.15,5.15,0,0,0-.47-2.21,3.5,3.5,0,0,0-1.84-1.61,10.87,10.87,0,0,0-2.9-.83c-1-.14-1.81-.24-2.36-.28V-.26h27.2A42.86,42.86,0,0,1,304.83.85,29,29,0,0,1,314.41,5,23.13,23.13,0,0,1,322,13.16a25,25,0,0,1,2.88,12.48A23.64,23.64,0,0,1,322.29,36.93ZM405.2,50.86H377.35V48.05a35.66,35.66,0,0,0,4.57-.7c1.75-.38,2.62-.84,2.62-1.39a3.92,3.92,0,0,0-.05-.65,4.7,4.7,0,0,0-.31-1l-4.36-10.6H362.17c-.4,1-.85,2.14-1.34,3.46s-.91,2.5-1.27,3.53a20.08,20.08,0,0,0-.81,2.92,11.19,11.19,0,0,0-.12,1.26c0,.77.58,1.43,1.74,2a19,19,0,0,0,5.81,1.17v2.81h-21V48.05a20.23,20.23,0,0,0,2.68-.38,7.14,7.14,0,0,0,2.36-.85,9.07,9.07,0,0,0,2.51-2.12,11.52,11.52,0,0,0,1.71-3q4.17-10.12,8.37-20.29T372.13-1h7.2q7.07,17.36,11.06,27.45t6.81,16.71a8.69,8.69,0,0,0,1.19,2,7.7,7.7,0,0,0,2.06,1.67,7.9,7.9,0,0,0,2.34.87,17.42,17.42,0,0,0,2.41.36Zm59.16,0H444.74q-5.07-7.78-8.44-12.4T427.93,27.8h-2V43.33a4.64,4.64,0,0,0,.49,2.2A3.71,3.71,0,0,0,428.29,47a12.88,12.88,0,0,0,2.15.59,23.2,23.2,0,0,0,2.5.42v2.81H405.67V48.05l2.76-.31a10,10,0,0,0,2.43-.49,3.56,3.56,0,0,0,1.84-1.45,4.83,4.83,0,0,0,.46-2.26V7.48a5.28,5.28,0,0,0-.39-2.16,3.46,3.46,0,0,0-1.91-1.51,15.54,15.54,0,0,0-2.72-.8c-1.05-.21-1.87-.37-2.47-.46V-.26h28.68q9.61,0,14.61,3a9.94,9.94,0,0,1,5,9.1,12.06,12.06,0,0,1-3.08,8.63q-3.09,3.26-9.39,5.1,2.44,3.16,5.71,7.35T454,41.45c.75.94,1.76,2.09,3,3.45a8.91,8.91,0,0,0,3.4,2.5,14.08,14.08,0,0,0,2.11.43c.85.12,1.46.19,1.82.22ZM512,14.36h-2.81a31.1,31.1,0,0,0-3.58-7q-2.46-3.75-4.54-4c-.77-.09-1.72-.18-2.84-.25s-2.1-.11-2.91-.11h-1.69V43a5.21,5.21,0,0,0,.47,2.29A3.29,3.29,0,0,0,496,46.89a16.06,16.06,0,0,0,2.58.67c1.16.23,2.15.39,3,.49v2.81H473V48.05l2.94-.31a10.07,10.07,0,0,0,2.58-.49,3.37,3.37,0,0,0,1.87-1.54,5.32,5.32,0,0,0,.47-2.31V2.94h-1.69c-.82,0-1.79,0-2.91.11s-2.08.16-2.84.25q-2.09.29-4.55,4a32,32,0,0,0-3.58,7h-2.81V-.26H512ZM543.11,2.55q-1.08.11-2.7.3a14.93,14.93,0,0,0-2.74.56,3,3,0,0,0-1.87,1.46,5.23,5.23,0,0,0-.47,2.25V43.33a4.6,4.6,0,0,0,.49,2.21,3.51,3.51,0,0,0,1.85,1.5,12.69,12.69,0,0,0,2.51.63,28.51,28.51,0,0,0,2.93.38v2.81H514.76V48.05l2.86-.22a10.1,10.1,0,0,0,2.62-.43A3.47,3.47,0,0,0,522.05,46a4.59,4.59,0,0,0,.49-2.26V7.48a4.8,4.8,0,0,0-.47-2.16,3.39,3.39,0,0,0-1.83-1.51,16.2,16.2,0,0,0-2.56-.74,28.24,28.24,0,0,0-2.92-.52V-.26h28.35ZM643.27,14.36h-2.81a32,32,0,0,0-3.58-7q-2.46-3.75-4.55-4c-.76-.09-1.71-.18-2.84-.25s-2.09-.11-2.91-.11h-1.69V43a5.35,5.35,0,0,0,.47,2.29,3.31,3.31,0,0,0,1.84,1.56,15.88,15.88,0,0,0,2.57.67c1.17.23,2.16.39,3,.49v2.81h-28.5V48.05l2.94-.31a10,10,0,0,0,2.57-.49,3.34,3.34,0,0,0,1.87-1.54,5.18,5.18,0,0,0,.47-2.31V2.94h-1.69c-.81,0-1.78,0-2.91.11s-2.07.16-2.84.25q-2.08.29-4.54,4a31.1,31.1,0,0,0-3.58,7h-2.81V-.26h49.54Zm50.9,36.5H646.22V48.05c.67,0,1.59-.15,2.74-.29a10.33,10.33,0,0,0,2.45-.51,3.56,3.56,0,0,0,1.84-1.45,4.83,4.83,0,0,0,.46-2.26V7.48a5.12,5.12,0,0,0-.39-2.14,3.61,3.61,0,0,0-1.91-1.53,12.86,12.86,0,0,0-2.63-.8c-1.13-.24-2-.39-2.56-.46V-.26h45.32v13H688.8a18.9,18.9,0,0,0-3.6-5.89,9.77,9.77,0,0,0-5.08-3.52,16.13,16.13,0,0,0-3-.3c-1.28,0-2.34-.06-3.19-.06H666.5V22.72h5.26a13.1,13.1,0,0,0,3.61-.47,6.81,6.81,0,0,0,3-1.8A9.13,9.13,0,0,0,680,17.53a16.94,16.94,0,0,0,1.09-3.64h2.74V35.22h-2.74a18.43,18.43,0,0,0-1.09-3.8,10.63,10.63,0,0,0-1.68-3.15,6.07,6.07,0,0,0-2.81-1.78,12.87,12.87,0,0,0-3.75-.49H666.5V40.73a15.36,15.36,0,0,0,.35,3.66,3.61,3.61,0,0,0,1.27,2.07,5.15,5.15,0,0,0,2.47.9,31.84,31.84,0,0,0,4.27.22c.84,0,1.85,0,3,0a27,27,0,0,0,3.1-.21,19.32,19.32,0,0,0,2.82-.54,4.13,4.13,0,0,0,2-1,29.46,29.46,0,0,0,3.89-5.38,38.23,38.23,0,0,0,2.84-5.43h2.63Z" transform="translate(-0.57 3.26)"/><path d="M4.62,47.25a3.34,3.34,0,0,0,1.8-1.4,4.65,4.65,0,0,0,.51-2.31V7.48a5.11,5.11,0,0,0-.4-2.14A3.61,3.61,0,0,0,4.62,3.81,12,12,0,0,0,1.94,3L.57,2.74V47.93c.56-.06,1.16-.13,1.82-.22A11.33,11.33,0,0,0,4.62,47.25Z" transform="translate(-0.57 3.26)"/></svg>