<svg id="Calque_1" data-name="Calque 1" xmlns="http://www.w3.org/2000/svg" xmlns:xlink="http://www.w3.org/1999/xlink" viewBox="0 0 156.11 190.94"><defs><style>.cls-1,.cls-12,.cls-4,.cls-6,.cls-7,.cls-8,.cls-9{fill:none;}.cls-2{clip-path:url(#clip-path);}.cls-11,.cls-3{fill:#1c1d1c;}.cls-12,.cls-4,.cls-6,.cls-7,.cls-8,.cls-9{stroke:#1c1d1c;}.cls-10,.cls-11,.cls-12,.cls-4,.cls-6,.cls-7,.cls-8,.cls-9{stroke-miterlimit:10;}.cls-4{stroke-width:2.5px;}.cls-5{fill:#fff;}.cls-6{stroke-width:5px;}.cls-7{stroke-width:0.05px;}.cls-8{stroke-width:7px;}.cls-9{stroke-width:4px;}.cls-10{fill:#1d1d1b;stroke-width:0.5px;}.cls-10,.cls-11{stroke:#1d1d1b;}.cls-12{stroke-width:0.25px;}</style><clipPath id="clip-path" transform="translate(-23.07 -8.18)"><rect class="cls-1" x="12.82" y="-4.52" width="171.75" height="236.62"/></clipPath></defs><title>logo accueil</title><g class="cls-2"><path class="cls-3" d="M101.27,87.17l26.46,3.9,1.3-8.83a13.19,13.19,0,0,0-11.12-15,13.57,13.57,0,0,0-15.4,11.45Z" transform="translate(-23.07 -8.18)"/><path class="cls-4" d="M101.27,87.17l26.46,3.9,1.3-8.83a13.19,13.19,0,0,0-11.12-15,13.57,13.57,0,0,0-15.4,11.45Z" transform="translate(-23.07 -8.18)"/></g><polygon class="cls-5" points="102.84 129.09 132.15 158.83 146.9 153.17 151.04 157.28 122.79 185.69 114.06 177.01 84.75 147.28 102.84 129.09"/><polygon class="cls-4" points="102.84 129.09 132.15 158.83 146.9 153.17 151.04 157.28 122.79 185.69 114.06 177.01 84.75 147.28 102.84 129.09"/><path class="cls-3" d="M172.57,165.47l-26.72,26.86-7.94-7.9-28.56-29,16.55-16.64,29,29.46,14.76-5.66Zm-26.71,29.94,29.78-29.95-5.41-5.38-14.74,5.66-29.58-30-19.62,19.72L136.37,186Z" transform="translate(-23.07 -8.18)"/><path class="cls-6" d="M172.57,165.47l-26.72,26.86-7.94-7.9-28.56-29,16.55-16.64,29,29.46,14.76-5.66Zm-26.71,29.94,29.78-29.95-5.41-5.38-14.74,5.66-29.58-30-19.62,19.72L136.37,186Z" transform="translate(-23.07 -8.18)"/><polygon class="cls-5" points="6.58 146.89 18.87 147.55 42.4 148.69 46.2 138.97 70.22 147.97 59.6 175.13 59.6 175.19 17.89 172.99 10.88 187.33 5.04 186.92 6.58 146.89"/><polygon class="cls-4" points="6.58 146.89 18.87 147.55 42.4 148.69 46.2 138.97 70.22 147.97 59.6 175.13 59.6 175.19 17.89 172.99 10.88 187.33 5.04 186.92 6.58 146.89"/><path class="cls-3" d="M39,179.66,32,194.3l-4-.35,1.45-37.85,11.2.62,24.31,1.17,3.69-9.45,22,8.23-10,25.19Zm-5.69,16.86,7-14.33,41.8,2.2.33-.95,11-28-26-9.76-3.91,10-22.76-1.1-13.38-.7L25.66,196Z" transform="translate(-23.07 -8.18)"/><path class="cls-6" d="M39,179.66,32,194.3l-4-.35,1.45-37.85,11.2.62,24.31,1.17,3.69-9.45,22,8.23-10,25.19Zm-5.69,16.86,7-14.33,41.8,2.2.33-.95,11-28-26-9.76-3.91,10-22.76-1.1-13.38-.7L25.66,196Z" transform="translate(-23.07 -8.18)"/><polygon class="cls-3" points="107.04 128.21 115.79 137.53 88.9 162.11 73.34 146.55 69.11 159.38 34.23 145.23 43.32 120.17 94.19 119.29 107.04 128.21"/><polygon class="cls-7" points="107.04 128.21 115.79 137.53 88.9 162.11 73.34 146.55 69.11 159.38 34.23 145.23 43.32 120.17 94.19 119.29 107.04 128.21"/><g class="cls-2"><path class="cls-3" d="M130,56.66s7.16-1.27,11.7-5c0,0-3.07-14.84-1.58-22.6,0,0-9.37,24.77-10.12,27.64" transform="translate(-23.07 -8.18)"/><path class="cls-3" d="M141,51a26.36,26.36,0,0,1-8.63,3.89c1.29-3.75,4.24-11.7,6.81-18.55A108.42,108.42,0,0,0,141,51m-12,7,1.82-.33c.3-.05,7.53-1.37,12.25-5.29l.54-.46-.14-.69c0-.15-3-14.71-1.57-22.14l-2.27-.64c-.38,1-9.41,24.86-10.17,27.76Z" transform="translate(-23.07 -8.18)"/></g><rect class="cls-5" x="64.24" y="42.47" width="68.91" height="124.95" transform="translate(-39.83 182.91) rotate(-83.48)"/><rect class="cls-8" x="64.24" y="42.47" width="68.91" height="124.95" transform="translate(-39.83 182.91) rotate(-83.48)"/><g class="cls-2"><path class="cls-5" d="M139.83,29.48s-7.24,41.85-29.75,39.93-22.73-36.76-14.25-46,32.12-16.29,44,6.1" transform="translate(-23.07 -8.18)"/><path class="cls-9" d="M139.83,29.48s-7.24,41.85-29.75,39.93-22.73-36.76-14.25-46S128,7.09,139.83,29.48Z" transform="translate(-23.07 -8.18)"/><path class="cls-3" d="M140.14,28.92s-8.37,6.79-28.84-.56L95.58,48.83c-.79,1-27.21-14.72-25.79-29.5L106,9.53s26.59-4.84,34.11,19.39" transform="translate(-23.07 -8.18)"/><path class="cls-3" d="M111,27.24l-.42.54L95.15,47.84c-1.65-.58-7.59-4-13.48-9.26a44,44,0,0,1-8-9.2,16.76,16.76,0,0,1-2.94-9.31l35.54-9.62a37.9,37.9,0,0,1,13.88.62,26.68,26.68,0,0,1,11,5.35,26.17,26.17,0,0,1,8,12.11,17,17,0,0,1-6,2c-4.11.66-11.17.67-21.45-3ZM95.44,49.82a1.06,1.06,0,0,0,.89-.41c.71-.91,12.88-16.77,15.3-19.93a58.34,58.34,0,0,0,12.71,3,33.87,33.87,0,0,0,9.22-.16c4.84-.81,7.09-2.6,7.18-2.67l.5-.4-.19-.62a28.33,28.33,0,0,0-8.8-13.7,28.69,28.69,0,0,0-11.76-5.72,38.87,38.87,0,0,0-14.63-.62h-.08l-36.87,10-.06.65c-.31,3.28.62,6.81,2.79,10.5A42.22,42.22,0,0,0,79.29,39c5.79,5.45,12.38,9.53,15,10.58a3.17,3.17,0,0,0,1.14.28" transform="translate(-23.07 -8.18)"/><path class="cls-10" d="M123.82,49.43a2.65,2.65,0,0,0,1.45-.38,2.52,2.52,0,0,0,1-2.34,2.26,2.26,0,0,0-.9-2,3.41,3.41,0,0,0-2.63-.25.37.37,0,0,0-.27.5l.12.34a3.06,3.06,0,0,1,2.34,0,1.57,1.57,0,0,1,.57,1.35,1.81,1.81,0,0,1-.64,1.67,2.51,2.51,0,0,1-1.93.13.4.4,0,0,0-.46.21.39.39,0,0,0,.24.53A3.88,3.88,0,0,0,123.82,49.43Z" transform="translate(-23.07 -8.18)"/><path class="cls-11" d="M121.73,57.73h.09a4.48,4.48,0,0,0,3.47-1.53.5.5,0,0,0-.11-.75h0a.5.5,0,0,0-.64.09,3.46,3.46,0,0,1-2.69,1.2h-.07a1.81,1.81,0,0,1-1.76-1,.52.52,0,0,0-.51-.29.49.49,0,0,0-.4.69,2.8,2.8,0,0,0,2.62,1.6" transform="translate(-23.07 -8.18)"/><path class="cls-3" d="M113.9,41.6c-.24,2.66.87,4.85,2.48,4.67s2.89-2.26,2.91-4.43-1.13-4-2.51-4.34-2.64,1.44-2.88,4.1" transform="translate(-23.07 -8.18)"/><path class="cls-3" d="M128.8,42.16c-.21,2.35.78,4.29,2.2,4.13s2.57-2,2.58-3.92-1-3.57-2.23-3.85S129,39.8,128.8,42.16" transform="translate(-23.07 -8.18)"/><path class="cls-3" d="M109,143.3a13.1,13.1,0,0,1-6.15,2.77,19.11,19.11,0,0,1-7.18.08c-2-.41-3-1.15-3.27-1.7-1.33-3.13-2.19-10.86-2.31-12a14.69,14.69,0,0,0-2-9.3c-2.56-4.28-10.11-25.68-10.36-26.5a12.64,12.64,0,0,1,0-2.43l2.29-19.59c7.05.87,14.51,2,16.45,2.65-.15,2.94-1,14.78-1,15.34a13.21,13.21,0,0,0-.07,2v.11l0,.12,5.33,20.25a31.67,31.67,0,0,0,1,4.65c1.07,3.48,2.51,5.92,4.28,7.24,3.29,2.45,3.39,2.77,4.4,5.88l.25.76c.88,2.68-.71,3.4-1.06,3.53l-1.1.31.4,1.08a7.89,7.89,0,0,1,0,4.76M99,148.63a22.32,22.32,0,0,0,4.37-.43,15,15,0,0,0,7.41-3.5l.17-.16.08-.21a9.92,9.92,0,0,0,.37-5.59,4.27,4.27,0,0,0,1.41-1.58,5.37,5.37,0,0,0,.1-4.21c-.09-.27-.17-.53-.25-.76-1.11-3.45-1.44-4.19-5.17-7-2.83-2.11-4.19-8.28-4.47-10.49v-.07L97.63,94.4a10.86,10.86,0,0,1,.06-1.5c.08-.68,1.09-15,1.09-16.2,0-1-1-1.33-1.55-1.49S96,74.87,95,74.67c-1.55-.32-3.72-.68-6.43-1.09-4.59-.68-9.24-1.24-9.29-1.24l-1.08-.13L75.67,94a12.58,12.58,0,0,0,0,3.24c.25.88,7.92,22.59,10.58,27a12.39,12.39,0,0,1,1.67,8l0,.15,0,.16c0,.37.93,9.1,2.49,12.77.61,1.44,2.28,2.47,4.84,3a18.61,18.61,0,0,0,3.67.34" transform="translate(-23.07 -8.18)"/><path class="cls-12" d="M109,143.3a13.1,13.1,0,0,1-6.15,2.77,19.11,19.11,0,0,1-7.18.08c-2-.41-3-1.15-3.27-1.7-1.33-3.13-2.19-10.86-2.31-12a14.69,14.69,0,0,0-2-9.3c-2.56-4.28-10.11-25.68-10.36-26.5a12.64,12.64,0,0,1,0-2.43l2.29-19.59c7.05.87,14.51,2,16.45,2.65-.15,2.94-1,14.78-1,15.34a13.21,13.21,0,0,0-.07,2v.11l0,.12,5.33,20.25a31.67,31.67,0,0,0,1,4.65c1.07,3.48,2.51,5.92,4.28,7.24,3.29,2.45,3.39,2.77,4.4,5.88l.25.76c.88,2.68-.71,3.4-1.06,3.53l-1.1.31.4,1.08A7.89,7.89,0,0,1,109,143.3ZM99,148.63a22.32,22.32,0,0,0,4.37-.43,15,15,0,0,0,7.41-3.5l.17-.16.08-.21a9.92,9.92,0,0,0,.37-5.59,4.27,4.27,0,0,0,1.41-1.58,5.37,5.37,0,0,0,.1-4.21c-.09-.27-.17-.53-.25-.76-1.11-3.45-1.44-4.19-5.17-7-2.83-2.11-4.19-8.28-4.47-10.49v-.07L97.63,94.4a10.86,10.86,0,0,1,.06-1.5c.08-.68,1.09-15,1.09-16.2,0-1-1-1.33-1.55-1.49S96,74.87,95,74.67c-1.55-.32-3.72-.68-6.43-1.09-4.59-.68-9.24-1.24-9.29-1.24l-1.08-.13L75.67,94a12.58,12.58,0,0,0,0,3.24c.25.88,7.92,22.59,10.58,27a12.39,12.39,0,0,1,1.67,8l0,.15,0,.16c0,.37.93,9.1,2.49,12.77.61,1.44,2.28,2.47,4.84,3A18.61,18.61,0,0,0,99,148.63Z" transform="translate(-23.07 -8.18)"/><path class="cls-3" d="M75,75.38l26.47,3.89,1.3-8.83a13.18,13.18,0,0,0-11.13-15A13.56,13.56,0,0,0,76.22,66.92Z" transform="translate(-23.07 -8.18)"/><path class="cls-4" d="M75,75.38l26.47,3.89,1.3-8.83a13.18,13.18,0,0,0-11.13-15A13.56,13.56,0,0,0,76.22,66.92Z" transform="translate(-23.07 -8.18)"/><path class="cls-5" d="M79.17,73.82,76.76,94.51a13.75,13.75,0,0,0,0,2.84c.19.67,7.84,22.38,10.47,26.76a13.54,13.54,0,0,1,1.8,8.71s.9,8.9,2.41,12.46,13.55,3.85,18.54-1a8.83,8.83,0,0,0,.08-5.73s3.06-1,1.77-4.9-1.21-4.33-5-7.17-4.9-11.23-4.9-11.23L96.54,95a12.27,12.27,0,0,1,.07-1.8c.1-.83,1.09-15,1.09-16.07s-18.53-3.27-18.53-3.27" transform="translate(-23.07 -8.18)"/><path class="cls-6" d="M79.17,73.82,76.76,94.51a13.75,13.75,0,0,0,0,2.84c.19.67,7.84,22.38,10.47,26.76a13.54,13.54,0,0,1,1.8,8.71s.9,8.9,2.41,12.46,13.55,3.85,18.54-1a8.83,8.83,0,0,0,.08-5.73s3.06-1,1.77-4.9-1.21-4.33-5-7.17-4.9-11.23-4.9-11.23L96.54,95a12.27,12.27,0,0,1,.07-1.8c.1-.83,1.09-15,1.09-16.07S79.17,73.82,79.17,73.82Z" transform="translate(-23.07 -8.18)"/></g></svg>