<svg id="Calque_1" data-name="Calque 1" xmlns="http://www.w3.org/2000/svg" xmlns:xlink="http://www.w3.org/1999/xlink" viewBox="0 0 800 50"><defs><style>.cls-1{fill:none;}.cls-2{clip-path:url(#clip-path);}</style><clipPath id="clip-path" transform="translate(-0.4 0.41)"><rect class="cls-1" x="0.4" y="-0.41" width="800" height="50"/></clipPath></defs><title>bandeau-archives</title><g class="cls-2"><path d="M695.9,9a14,14,0,0,0-4-5.12,9.86,9.86,0,0,0-6.2-1.93q-6.35,0-9.63,6t-3.3,17a51.32,51.32,0,0,0,.72,8.8A26.14,26.14,0,0,0,675.76,41a13,13,0,0,0,4,4.85,9.93,9.93,0,0,0,6,1.74,10.05,10.05,0,0,0,5.95-1.75,12.2,12.2,0,0,0,4-4.81,26.65,26.65,0,0,0,2.28-7.23,54.21,54.21,0,0,0,.7-9.12,56.49,56.49,0,0,0-.62-8.4A27,27,0,0,0,695.9,9M607.67-.11h48.16V14.11H653.1a30.43,30.43,0,0,0-3.48-6.83c-1.59-2.43-3.07-3.73-4.42-3.92-.74-.09-1.66-.18-2.76-.25s-2-.1-2.83-.1H638V42a5.11,5.11,0,0,0,.46,2.23,3.19,3.19,0,0,0,1.78,1.52,15.5,15.5,0,0,0,2.51.65c1.13.22,2.09.38,2.88.47v2.73H617.9V46.86l2.86-.3a10.14,10.14,0,0,0,2.5-.47,3.25,3.25,0,0,0,1.82-1.51,5.14,5.14,0,0,0,.46-2.24V3h-1.65c-.79,0-1.73,0-2.83.1s-2,.16-2.76.25c-1.35.19-2.82,1.49-4.42,3.92a30.78,30.78,0,0,0-3.47,6.83h-2.74Zm-20.43,49.7h89.28c-.44-.14-.89-.26-1.32-.42A25.42,25.42,0,0,1,666.69,44a24.23,24.23,0,0,1-5.78-8.09,25.76,25.76,0,0,1-2.14-10.62,28.26,28.26,0,0,1,2.09-11,25.58,25.58,0,0,1,5.72-8.49A25,25,0,0,1,675.15.4c.81-.31,1.64-.58,2.48-.81h-91.7c.8.22,1.59.47,2.36.76a25.5,25.5,0,0,1,8.46,5.08,24.69,24.69,0,0,1,5.83,8.12,26.22,26.22,0,0,1,2.15,10.86,29.52,29.52,0,0,1-1.82,10.33,23.82,23.82,0,0,1-5.25,8.44,25.83,25.83,0,0,1-8.48,5.73c-.62.26-1.28.47-1.94.68M166.41-.11h26.86V2.62a24.77,24.77,0,0,0-2.59.35c-1,.19-1.77.37-2.31.53A2.81,2.81,0,0,0,186.56,5a5.29,5.29,0,0,0-.43,2.12V21.92h21.22V7.42a4.33,4.33,0,0,0-.45-2.06,3.78,3.78,0,0,0-1.83-1.47,12.83,12.83,0,0,0-2.43-.79,21.11,21.11,0,0,0-2.43-.48V-.11h26.86V2.62q-1.12.07-2.52.3A18.12,18.12,0,0,0,222,3.5a2.81,2.81,0,0,0-1.79,1.44,5,5,0,0,0-.45,2.13v35.2a4.67,4.67,0,0,0,.45,2.14A3.54,3.54,0,0,0,222,45.88a12.57,12.57,0,0,0,2.43.63,25.88,25.88,0,0,0,2.61.35v2.73H200.21V46.86l2.55-.21a7.81,7.81,0,0,0,2.31-.42,3.44,3.44,0,0,0,1.79-1.38,4.38,4.38,0,0,0,.49-2.19V25.53H186.13V42.27a4.53,4.53,0,0,0,.5,2.14,3.39,3.39,0,0,0,1.74,1.47,12.7,12.7,0,0,0,2.27.59,23.68,23.68,0,0,0,2.63.39v2.73H166.41V46.86c.58,0,1.44-.1,2.57-.23a11.57,11.57,0,0,0,2.47-.47,3,3,0,0,0,1.75-1.38,4.6,4.6,0,0,0,.49-2.19V7.42a4.45,4.45,0,0,0-.43-2.06,3.71,3.71,0,0,0-1.81-1.47,14.08,14.08,0,0,0-2.66-.83c-1.1-.24-1.89-.39-2.38-.44Zm152.14,0h44.06V12.57H360a18.59,18.59,0,0,0-3.5-5.72,9.51,9.51,0,0,0-4.94-3.42,16.21,16.21,0,0,0-2.93-.3c-1.24,0-2.28,0-3.09,0h-7.22V22.24h5.11a12.38,12.38,0,0,0,3.51-.46A6.59,6.59,0,0,0,349.76,20a8.78,8.78,0,0,0,1.63-2.84,17.21,17.21,0,0,0,1.07-3.53h2.66V34.39h-2.66a17.78,17.78,0,0,0-1.07-3.69,10.24,10.24,0,0,0-1.63-3.07A5.94,5.94,0,0,0,347,25.9a12.56,12.56,0,0,0-3.65-.48h-5.11V39.75a15.14,15.14,0,0,0,.33,3.55,3.53,3.53,0,0,0,1.25,2,5.07,5.07,0,0,0,2.4.87,31.84,31.84,0,0,0,4.15.21l2.94,0a25.36,25.36,0,0,0,3-.21,18.37,18.37,0,0,0,2.75-.53,4.06,4.06,0,0,0,1.91-1,28.88,28.88,0,0,0,3.78-5.24,38.52,38.52,0,0,0,2.77-5.27h2.55l-.94,15.48H318.55V46.86c.66,0,1.54-.14,2.66-.28a10.68,10.68,0,0,0,2.39-.49,3.4,3.4,0,0,0,1.78-1.42,4.56,4.56,0,0,0,.46-2.19V7.42a4.86,4.86,0,0,0-.39-2.08,3.48,3.48,0,0,0-1.85-1.49A12.43,12.43,0,0,0,321,3.08c-1.1-.23-1.93-.39-2.49-.46Zm-157.92,0L160.94,18h-3.08q-2.62-8.31-6.29-12.21a11.85,11.85,0,0,0-9-3.9,11,11,0,0,0-10,5.81q-3.44,5.81-3.43,16.29a38,38,0,0,0,1.17,10.12,20.73,20.73,0,0,0,3.06,6.76,12.46,12.46,0,0,0,4.79,3.91,15.7,15.7,0,0,0,14.86-1.42,25,25,0,0,0,7-8l3,1.82a30.3,30.3,0,0,1-3.44,5.51,20.51,20.51,0,0,1-4.44,4.19,23.25,23.25,0,0,1-5.35,2.73H284.6q-4.8-11.75-9.76-23.85-5.07-12.4-7.14-17.23a12.23,12.23,0,0,0-1.56-2.65A9.07,9.07,0,0,0,263.74,4a9.56,9.56,0,0,0-2.1-.93,17.25,17.25,0,0,0-2.4-.47l-2.61.29a14,14,0,0,0-2.66.55,2.85,2.85,0,0,0-1.82,1.41,5,5,0,0,0-.46,2.19v35.2a4.53,4.53,0,0,0,.48,2.16,3.4,3.4,0,0,0,1.8,1.45,12.24,12.24,0,0,0,2.43.61,27.11,27.11,0,0,0,2.86.37v2.73H231.69V46.86l2.79-.21a9.6,9.6,0,0,0,2.54-.42,3.39,3.39,0,0,0,1.77-1.38,4.61,4.61,0,0,0,.47-2.19V7.42a4.57,4.57,0,0,0-.46-2.1A3.28,3.28,0,0,0,237,3.85a16.75,16.75,0,0,0-2.49-.72c-1.1-.24-2-.41-2.84-.51V-.11h27.53V2.62h0V-.11h26.9V2.55a26,26,0,0,0-5.13,1c-.9.34-1.35.76-1.35,1.28a3.13,3.13,0,0,0,.12.82c.08.29.21.68.37,1.17q1.13,3.09,4.06,10.06T293,38.14q3.54-8.72,5.88-14.73T303,12.78c.59-1.49,1.07-2.89,1.46-4.18A11.65,11.65,0,0,0,305,5.67c0-.75-.54-1.37-1.62-1.87a19.8,19.8,0,0,0-5.95-1.11V-.11h20.14v2.8a11.37,11.37,0,0,0-2.21.42,9.82,9.82,0,0,0-2.17,1A8.48,8.48,0,0,0,310.86,6a12.61,12.61,0,0,0-1.62,2.75c-.73,1.61-1.74,4-3.05,7.06s-2.8,6.61-4.48,10.56q-2.25,5.32-4.86,11.66c-1.65,4-3.24,7.88-4.76,11.59H381.9A30.22,30.22,0,0,1,376,47.14l-2.42,2.45h-3l-.45-18h3A47.61,47.61,0,0,0,375.71,37a26.56,26.56,0,0,0,3.64,5.09A19.1,19.1,0,0,0,384.13,46a12.56,12.56,0,0,0,6.19,1.47c3.17,0,5.61-.78,7.3-2.33a7.63,7.63,0,0,0,2.54-5.87A6.37,6.37,0,0,0,398,34.33a18.06,18.06,0,0,0-6.67-3.43l-5.41-1.75c-1.65-.54-3.19-1.09-4.64-1.66a15.35,15.35,0,0,1-7.44-5.71,14.88,14.88,0,0,1-2.44-8.31,13,13,0,0,1,1.26-5.6,15.05,15.05,0,0,1,3.68-4.82,18.14,18.14,0,0,1,5.92-3.26c.22-.08.44-.13.66-.2H149.82a31.07,31.07,0,0,1,5.59,2.23l2.17-1.93Zm297,3.19h-2.91V24.9h1.47q5.75,0,8.74-2.64c2-1.77,3-4.48,3-8.15s-.75-6.51-2.26-8.32-4.18-2.71-8-2.71M435-.11h27.43q9.63,0,14.39,3.07t4.76,9.37a14.28,14.28,0,0,1-1.73,7.23,13.81,13.81,0,0,1-4.78,4.92,22.59,22.59,0,0,1-7.2,2.84,43.29,43.29,0,0,1-9.09.87h-4.06v14a4.84,4.84,0,0,0,.47,2.19A3.41,3.41,0,0,0,457,45.84a13.54,13.54,0,0,0,2.27.6q1.57.31,2.67.42v2.73H435V46.86l2.7-.3a9.47,9.47,0,0,0,2.34-.47,3.37,3.37,0,0,0,1.81-1.37,4.73,4.73,0,0,0,.44-2.24V7.42a5,5,0,0,0-.42-2.12,3.3,3.3,0,0,0-1.83-1.48,13.59,13.59,0,0,0-2.6-.76c-1.09-.22-1.9-.37-2.44-.44Zm50.3,0H512.2V2.62a24.77,24.77,0,0,0-2.59.35,23.45,23.45,0,0,0-2.31.53A2.79,2.79,0,0,0,505.49,5a5.3,5.3,0,0,0-.44,2.12V21.92h21.23V7.42a4.21,4.21,0,0,0-.46-2.06A3.74,3.74,0,0,0,524,3.89a13.33,13.33,0,0,0-2.43-.79,20.8,20.8,0,0,0-2.44-.48V-.11H546V2.62q-1.12.07-2.52.3A18.63,18.63,0,0,0,541,3.5a2.82,2.82,0,0,0-1.78,1.44,4.88,4.88,0,0,0-.46,2.13v35.2a4.54,4.54,0,0,0,.46,2.14A3.55,3.55,0,0,0,541,45.88a12.5,12.5,0,0,0,2.44.63,25.88,25.88,0,0,0,2.61.35v2.73H519.13V46.86l2.56-.21a7.89,7.89,0,0,0,2.31-.42,3.44,3.44,0,0,0,1.79-1.38,4.38,4.38,0,0,0,.49-2.19V25.53H505.05V42.27a4.42,4.42,0,0,0,.51,2.14,3.39,3.39,0,0,0,1.74,1.47,12.7,12.7,0,0,0,2.27.59,23.35,23.35,0,0,0,2.63.39v2.73H485.34V46.86c.58,0,1.44-.1,2.57-.23a11.7,11.7,0,0,0,2.47-.47,3.05,3.05,0,0,0,1.75-1.38,4.6,4.6,0,0,0,.49-2.19V7.42a4.33,4.33,0,0,0-.44-2.06,3.64,3.64,0,0,0-1.8-1.47,14.08,14.08,0,0,0-2.66-.83c-1.1-.24-1.89-.39-2.38-.44Zm-76.64,0,.28,17h-3q-1.05-2.73-2.47-5.6a24.18,24.18,0,0,0-3-4.75,13.77,13.77,0,0,0-4-3.25A10.85,10.85,0,0,0,391.3,2a9,9,0,0,0-6.19,2.14,6.84,6.84,0,0,0-2.39,5.3,6.28,6.28,0,0,0,2.08,4.87,17.9,17.9,0,0,0,6.5,3.34c1.72.58,3.49,1.16,5.29,1.75s3.39,1.14,4.79,1.68a17.34,17.34,0,0,1,7.73,5.42,13.7,13.7,0,0,1,2.64,8.58,13.85,13.85,0,0,1-1.5,6.24,14.47,14.47,0,0,1-4.07,5,20.17,20.17,0,0,1-6,3.23H568.65c-.44-.14-.89-.26-1.32-.42A25.32,25.32,0,0,1,558.82,44,24.23,24.23,0,0,1,553,35.9a25.61,25.61,0,0,1-2.14-10.62,28.44,28.44,0,0,1,2.08-11,25.45,25.45,0,0,1,5.73-8.49A25,25,0,0,1,567.27.4q1.23-.47,2.49-.81H397.52l.33.09A32.11,32.11,0,0,1,403.52,2l2.14-2.1ZM577.83,47.56a10.06,10.06,0,0,0,6-1.75,12.28,12.28,0,0,0,4-4.81A26.65,26.65,0,0,0,590,33.77a53.18,53.18,0,0,0,.7-9.12,56.49,56.49,0,0,0-.61-8.4A27,27,0,0,0,588,9a13.93,13.93,0,0,0-4-5.12,9.84,9.84,0,0,0-6.2-1.93q-6.33,0-9.63,6t-3.29,17a51.32,51.32,0,0,0,.72,8.8A26.14,26.14,0,0,0,567.89,41a13,13,0,0,0,4,4.85,9.92,9.92,0,0,0,6,1.74M88.32,5.37c-1.85-1.53-4.5-2.29-7.93-2.29H77.62v20.8h2.67c3.43,0,6.09-.89,8-2.69s2.84-4.65,2.84-8.55c0-3.31-.93-5.74-2.79-7.27M57.91-.11H85.78q9.36,0,14.21,2.93a9.65,9.65,0,0,1,4.85,8.84,11.7,11.7,0,0,1-3,8.39c-2,2.11-5,3.76-9.12,4.95q2.39,3.09,5.55,7.15t6.6,8.3c.73.91,1.71,2,3,3.35a8.67,8.67,0,0,0,3.31,2.43,14.86,14.86,0,0,0,2,.42q1.25.18,1.77.21v2.73H95.89Q91,42,87.68,37.54T79.54,27.18H77.62V42.27a4.42,4.42,0,0,0,.48,2.14,3.61,3.61,0,0,0,1.8,1.47,12.14,12.14,0,0,0,2.08.58,23.92,23.92,0,0,0,2.44.4v2.73H57.91V46.86l2.67-.3A10.26,10.26,0,0,0,63,46.09a3.47,3.47,0,0,0,1.79-1.42,4.69,4.69,0,0,0,.45-2.19V7.42a5.15,5.15,0,0,0-.38-2.1A3.4,3.4,0,0,0,63,3.85a15.66,15.66,0,0,0-2.65-.77c-1-.21-1.81-.36-2.39-.46ZM.4,49.59H132.2c-.43-.13-.85-.25-1.27-.4a24.08,24.08,0,0,1-8.3-5.14,23.32,23.32,0,0,1-5.46-8.16,27.59,27.59,0,0,1-2-10.67,28.14,28.14,0,0,1,2-10.72A25.45,25.45,0,0,1,122.84,6,24.78,24.78,0,0,1,131.42.47a28,28,0,0,1,2.68-.88H32.47q6.74,16.59,10.59,26.29t6.61,16.25A8.19,8.19,0,0,0,50.83,44a7.43,7.43,0,0,0,2,1.63,8.11,8.11,0,0,0,2.27.84,16.55,16.55,0,0,0,2.35.35v2.73H30.38V46.86a33.9,33.9,0,0,0,4.44-.68c1.7-.37,2.55-.81,2.55-1.35a3.7,3.7,0,0,0-.06-.63,4.16,4.16,0,0,0-.29-1L32.78,33H15.62c-.4.95-.83,2.07-1.31,3.36s-.88,2.43-1.23,3.43a18.09,18.09,0,0,0-.79,2.84,10.53,10.53,0,0,0-.12,1.22c0,.75.57,1.39,1.7,1.91a18.16,18.16,0,0,0,5.65,1.14v2.73ZM24.14,11.52l-7.09,18H31.33Zm1-11.93H.4V46.73c.42-.06.87-.14,1.34-.24A7.1,7.1,0,0,0,4,45.67,8.87,8.87,0,0,0,6.47,43.6a10.86,10.86,0,0,0,1.67-2.9q4-9.85,8.14-19.72,4-9.71,8.85-21.39m775.27,50v-50H693.8c.8.22,1.59.47,2.36.76a25.5,25.5,0,0,1,8.46,5.08,24.55,24.55,0,0,1,5.83,8.12,26.06,26.06,0,0,1,2.16,10.86,29.3,29.3,0,0,1-1.83,10.33,23.82,23.82,0,0,1-5.25,8.44,25.73,25.73,0,0,1-8.48,5.73c-.61.26-1.28.47-1.94.68H723.3a7.1,7.1,0,0,1-1.29-1,6.48,6.48,0,0,1-2-4.81,6.88,6.88,0,0,1,11.79-4.84,6.68,6.68,0,0,1,2,4.84,6.58,6.58,0,0,1-2,4.8,7.29,7.29,0,0,1-1.31,1Z" transform="translate(-0.4 0.41)"/></g></svg>